<svg width="53" height="42" viewBox="0 0 53 42" fill="none" xmlns="http://www.w3.org/2000/svg">
<g style="mix-blend-mode:darken">
<rect width="53" height="42" fill="white"/>
<path d="M47.4791 21C47.4791 30.665 38.6963 37.625 26.5 37.625C14.3037 37.625 5.52081 30.665 5.52081 21C5.52081 11.335 14.3037 4.375 26.5 4.375C38.6963 4.375 47.4791 11.335 47.4791 21Z" stroke="#391AB7" stroke-width="6"/>
<path d="M22.5695 13.6004C22.3594 14.0024 22.3594 14.512 22.3594 15.5312V17.6588C22.3594 17.687 22.3594 17.7012 22.3506 17.71C22.3418 17.7188 22.3276 17.7188 22.2994 17.7188H19.5989C18.3127 17.7188 17.6696 17.7188 17.1624 17.8853C16.486 18.1073 15.9486 18.5331 15.6684 19.0691C15.4583 19.4711 15.4583 19.9808 15.4583 21C15.4583 22.0192 15.4583 22.5289 15.6684 22.9309C15.9486 23.4669 16.486 23.8927 17.1624 24.1147C17.6696 24.2812 18.3127 24.2812 19.5989 24.2812H22.2994C22.3276 24.2812 22.3418 24.2812 22.3506 24.29C22.3594 24.2988 22.3594 24.313 22.3594 24.3413V26.4688C22.3594 27.488 22.3594 27.9976 22.5695 28.3996C22.8496 28.9356 23.387 29.3615 24.0634 29.5835C24.5707 29.75 25.2138 29.75 26.5 29.75C27.7862 29.75 28.4293 29.75 28.9366 29.5835C29.6129 29.3615 30.1503 28.9356 30.4305 28.3996C30.6406 27.9976 30.6406 27.488 30.6406 26.4688V24.3413C30.6406 24.313 30.6406 24.2988 30.6494 24.29C30.6582 24.2812 30.6723 24.2812 30.7006 24.2812H33.401C34.6872 24.2812 35.3303 24.2812 35.8376 24.1147C36.514 23.8927 37.0514 23.4669 37.3315 22.9309C37.5416 22.5289 37.5416 22.0192 37.5416 21C37.5416 19.9808 37.5416 19.4711 37.3315 19.0691C37.0514 18.5331 36.514 18.1073 35.8376 17.8853C35.3303 17.7188 34.6872 17.7188 33.401 17.7188H30.7006C30.6723 17.7188 30.6582 17.7188 30.6494 17.71C30.6406 17.7012 30.6406 17.687 30.6406 17.6588V15.5312C30.6406 14.512 30.6406 14.0024 30.4305 13.6004C30.1503 13.0644 29.6129 12.6385 28.9366 12.4165C28.4293 12.25 27.7862 12.25 26.5 12.25C25.2138 12.25 24.5707 12.25 24.0634 12.4165C23.387 12.6385 22.8496 13.0644 22.5695 13.6004Z" fill="#391AB7" stroke="#391AB7"/>
</g>
</svg>
