<svg width="55" height="44" viewBox="0 0 55 44" fill="none" xmlns="http://www.w3.org/2000/svg">
<path d="M5.72919 17.1211C5.72919 11.2609 11.3095 6.41669 18.3425 6.41669C21.9733 6.41669 25.2194 7.71811 27.5005 9.77778C29.7858 7.71759 33.0456 6.41669 36.6575 6.41669C43.6905 6.41669 49.2709 11.2609 49.2709 17.1211C49.2709 18.4268 49.0533 19.7559 48.6455 21.0834H41.7246L39.1848 19.0515C38.3553 18.3879 36.9568 18.5694 36.4322 19.4088L34.0611 23.2025L32.226 21.7344C31.475 21.1336 30.2293 21.2161 29.612 21.9075L25.7533 26.2292L23.2225 17.4558C22.8685 16.2286 20.8099 15.9963 20.0453 17.0973L15.8982 23.0692L13.9172 20.9561C13.2896 20.2867 12.0665 20.2172 11.3269 20.8089L9.8379 22H6.48152C5.99116 20.4339 5.72919 18.8034 5.72919 17.1211Z" fill="#062DB7"/>
<path d="M7.17115 23.8334C10.2758 30.8825 18.0492 36.4225 27.0938 39.1656C27.3555 39.245 27.6445 39.245 27.9062 39.1656C33.8547 37.3615 39.1767 34.0034 43.0145 30.0486C45.1686 27.8288 46.8785 25.3961 47.9626 22.9167H41.4873C41.0315 22.9167 40.5943 22.7718 40.272 22.514L38.1264 20.7975L35.7554 24.5912C35.2307 25.4306 33.8323 25.6122 33.0027 24.9485L31.0837 23.4134L26.8794 28.1222C26.0188 29.0861 24.139 28.7864 23.8061 27.6321L21.3247 19.03L17.4724 24.5773C16.8676 25.4482 15.3421 25.5315 14.5949 24.7346L12.4802 22.4789L11.2906 23.4306C10.9682 23.6885 10.5311 23.8334 10.0752 23.8334H7.17115Z" fill="#062DB7"/>
</svg>
