<svg width="62" height="59" viewBox="0 0 62 59" fill="none" xmlns="http://www.w3.org/2000/svg">
<mask id="mask0_18_41" style="mask-type:luminance" maskUnits="userSpaceOnUse" x="0" y="0" width="62" height="60">
<path d="M61.818 0.141602H0.675293V59.0098H61.818V0.141602Z" fill="white"/>
</mask>
<g mask="url(#mask0_18_41)">
<path d="M61.818 0.141602H0.675293V59.0098H61.818V0.141602Z" fill="white"/>
<path d="M27.4252 41.8399C36.5708 41.8399 43.9847 34.7018 43.9847 25.8965C43.9847 17.0911 36.5708 9.95297 27.4252 9.95297C18.2797 9.95297 10.8657 17.0911 10.8657 25.8965C10.8657 34.7018 18.2797 41.8399 27.4252 41.8399Z" stroke="#458FF6" stroke-width="2.5" stroke-linejoin="round"/>
<path d="M50.7267 50.0658C51.2243 50.5446 52.0308 50.5446 52.5284 50.0658C53.0257 49.5867 53.0257 48.8102 52.5284 48.3311L50.7267 50.0658ZM52.5284 48.3311L39.7903 36.0669L37.9886 37.8016L50.7267 50.0658L52.5284 48.3311Z" fill="#458FF6"/>
</g>
</svg>
